<svg width="201" height="200" viewBox="0 0 201 200" fill="none" xmlns="http://www.w3.org/2000/svg">
<circle cx="100" cy="100" r="100" fill="white"/>
<circle cx="100.5" cy="99.9997" r="79.0055" fill="#F93264"/>
<circle cx="100.5" cy="100" r="97.5" stroke="#F5A0B5" stroke-width="5"/>
<path d="M118.12 107.536C118.12 104.464 117.48 101.84 116.2 99.664C114.963 97.4453 113.32 95.7387 111.272 94.544C109.224 93.3493 106.984 92.752 104.552 92.752C103.229 92.752 101.928 92.88 100.648 93.136C99.4107 93.3493 98.2373 93.7547 97.128 94.352L99.816 85.136H117.416V77.2H93.032L86.888 102.416C88.424 101.563 89.8747 100.923 91.24 100.496C92.648 100.027 94.0133 99.7067 95.336 99.536C96.6587 99.3227 97.9173 99.216 99.112 99.216C100.733 99.216 102.227 99.5147 103.592 100.112C105 100.667 106.109 101.499 106.92 102.608C107.773 103.717 108.2 105.083 108.2 106.704C108.2 108.368 107.837 109.776 107.112 110.928C106.387 112.037 105.341 112.891 103.976 113.488C102.653 114.085 101.032 114.384 99.112 114.384C97.8747 114.384 96.5733 114.149 95.208 113.68C93.8427 113.168 92.52 112.485 91.24 111.632C90.0027 110.779 88.8507 109.819 87.784 108.752L83.496 115.856C84.7333 117.093 86.1627 118.245 87.784 119.312C89.4053 120.336 91.2827 121.168 93.416 121.808C95.592 122.448 98.0453 122.768 100.776 122.768C102.952 122.768 105.064 122.469 107.112 121.872C109.16 121.275 111.016 120.357 112.68 119.12C114.344 117.883 115.667 116.304 116.648 114.384C117.629 112.464 118.12 110.181 118.12 107.536Z" fill="white"/>
</svg>
