<svg width="100" height="100" viewBox="0 0 100 100" fill="none" xmlns="http://www.w3.org/2000/svg">
<circle cx="50" cy="50" r="50" fill="white"/>
<circle cx="50" cy="49.9998" r="39.5028" fill="#4DE1B2"/>
<circle cx="50" cy="50" r="47.5" stroke="#A4FDE1" stroke-width="5"/>
<path d="M37.8 64H60.32V58.76H48.6L55.88 51.88C57.0533 50.8133 58 49.6267 58.72 48.32C59.44 47.0133 59.8 45.6133 59.8 44.12C59.8 43.1067 59.5867 42.0933 59.16 41.08C58.76 40.0667 58.1333 39.1467 57.28 38.32C56.4533 37.4667 55.4 36.7867 54.12 36.28C52.8667 35.7467 51.4 35.48 49.72 35.48C47.4533 35.48 45.5333 35.96 43.96 36.92C42.4133 37.8533 41.24 39.12 40.44 40.72C39.64 42.32 39.24 44.12 39.24 46.12H44.84C44.84 45 45.0267 44.0133 45.4 43.16C45.8 42.3067 46.3467 41.6533 47.04 41.2C47.76 40.72 48.6133 40.48 49.6 40.48C50.2933 40.48 50.9067 40.6 51.44 40.84C51.9733 41.0533 52.4267 41.3467 52.8 41.72C53.1733 42.0933 53.4533 42.52 53.64 43C53.8267 43.48 53.92 43.9733 53.92 44.48C53.92 45.2 53.7867 45.8933 53.52 46.56C53.2533 47.2267 52.8667 47.8933 52.36 48.56C51.8533 49.2267 51.24 49.9467 50.52 50.72L37.8 64Z" fill="white"/>
</svg>
