<svg width="100" height="100" viewBox="0 0 100 100" fill="none" xmlns="http://www.w3.org/2000/svg">
<circle cx="50" cy="50" r="50" fill="white"/>
<circle cx="50" cy="49.9998" r="39.5028" fill="#4DE1B2"/>
<circle cx="50" cy="50" r="47.5" stroke="#A4FDE1" stroke-width="5"/>
<path d="M46.72 53.36C48.8267 53.36 50.7067 53.08 52.36 52.52C54.0133 51.96 55.32 51.1467 56.28 50.08C57.24 48.9867 57.72 47.68 57.72 46.16C57.72 44.7467 57.36 43.4667 56.64 42.32C55.92 41.1733 54.8667 40.2533 53.48 39.56C52.12 38.8667 50.4667 38.52 48.52 38.52C46.68 38.52 45.0667 38.88 43.68 39.6C42.2933 40.32 41.2 41.3067 40.4 42.56C39.6267 43.7867 39.24 45.2 39.24 46.8H44.56C44.56 45.76 44.9333 44.9067 45.68 44.24C46.4533 43.5467 47.4 43.2 48.52 43.2C49.32 43.2 49.9733 43.3333 50.48 43.6C50.9867 43.8667 51.3733 44.2533 51.64 44.76C51.9067 45.2667 52.04 45.8533 52.04 46.52C52.04 47.0533 51.9067 47.5733 51.64 48.08C51.4 48.56 51.0533 49 50.6 49.4C50.1467 49.7733 49.5867 50.0667 48.92 50.28C48.28 50.4933 47.5467 50.6 46.72 50.6V53.36ZM48.28 67.56C50.36 67.56 52.16 67.2267 53.68 66.56C55.2267 65.8667 56.4133 64.9067 57.24 63.68C58.0933 62.4533 58.52 61.04 58.52 59.44C58.52 58.0267 58.2267 56.8267 57.64 55.84C57.0533 54.8267 56.2267 54 55.16 53.36C54.0933 52.6933 52.84 52.2133 51.4 51.92C49.9867 51.6267 48.4267 51.48 46.72 51.48V54.52C47.7067 54.52 48.5733 54.6267 49.32 54.84C50.0933 55.0267 50.7333 55.3067 51.24 55.68C51.7733 56.0533 52.1733 56.52 52.44 57.08C52.7067 57.6133 52.84 58.2 52.84 58.84C52.84 59.72 52.6533 60.4533 52.28 61.04C51.9067 61.6267 51.3867 62.08 50.72 62.4C50.08 62.6933 49.32 62.84 48.44 62.84C47.5867 62.84 46.8 62.68 46.08 62.36C45.36 62.0133 44.7867 61.52 44.36 60.88C43.9333 60.24 43.72 59.4667 43.72 58.56H38.04C38.04 59.76 38.28 60.9067 38.76 62C39.24 63.0667 39.92 64.0267 40.8 64.88C41.68 65.7067 42.7467 66.36 44 66.84C45.2533 67.32 46.68 67.56 48.28 67.56Z" fill="white"/>
</svg>
