<svg width="190" height="190" viewBox="0 0 190 190" fill="none" xmlns="http://www.w3.org/2000/svg">
<path d="M44.5312 59.375C34.2991 59.3866 24.4894 63.4564 17.2541 70.6917C10.0189 77.9269 5.94909 87.7366 5.9375 97.9688C5.9375 106.707 12.0887 120.717 24.2209 139.605C33.0982 153.429 42.1013 164.991 42.1911 165.106C42.4688 165.462 42.8238 165.75 43.2293 165.947C43.6348 166.145 44.0801 166.248 44.5312 166.248C44.9824 166.248 45.4277 166.145 45.8332 165.947C46.2387 165.75 46.5937 165.462 46.8714 165.106C46.9612 164.991 55.9632 153.429 64.8416 139.605C76.9738 120.717 83.125 106.707 83.125 97.9688C83.1134 87.7366 79.0436 77.9269 71.8083 70.6917C64.5731 63.4564 54.7634 59.3866 44.5312 59.375ZM44.5312 158.4C33.6155 143.922 11.875 112.158 11.875 97.9688C11.875 89.3078 15.3156 81.0015 21.4398 74.8773C27.564 68.7531 35.8703 65.3125 44.5312 65.3125C53.1922 65.3125 61.4985 68.7531 67.6227 74.8773C73.7469 81.0015 77.1875 89.3078 77.1875 97.9688C77.1875 112.158 55.447 143.922 44.5312 158.4Z" fill="#F93264"/>
<path d="M44.5313 80.1562C41.0083 80.1562 37.5644 81.2009 34.6352 83.1582C31.7059 85.1155 29.4228 87.8974 28.0747 91.1522C26.7265 94.407 26.3737 97.9885 27.061 101.444C27.7483 104.899 29.4448 108.073 31.9359 110.564C34.427 113.055 37.6009 114.752 41.0562 115.439C44.5115 116.126 48.093 115.774 51.3478 114.425C54.6026 113.077 57.3845 110.794 59.3418 107.865C61.2991 104.936 62.3438 101.492 62.3438 97.9688C62.3384 93.2462 60.46 88.7187 57.1206 85.3794C53.7813 82.0401 49.2538 80.1617 44.5313 80.1562ZM44.5313 109.844C42.1826 109.844 39.8867 109.147 37.9339 107.842C35.981 106.538 34.459 104.683 33.5602 102.513C32.6614 100.343 32.4262 97.9556 32.8844 95.6521C33.3426 93.3485 34.4736 91.2326 36.1344 89.5719C37.7951 87.9111 39.911 86.7801 42.2146 86.3219C44.5181 85.8637 46.9058 86.0989 49.0756 86.9977C51.2455 87.8965 53.1001 89.4185 54.405 91.3714C55.7098 93.3242 56.4063 95.6201 56.4063 97.9688C56.4027 101.117 55.1505 104.136 52.9242 106.362C50.698 108.588 47.6796 109.84 44.5313 109.844Z" fill="#F93264"/>
<path d="M44.5312 169.219C40.0696 169.219 17.8125 169.648 17.8125 178.125C17.8125 186.602 40.0696 187.031 44.5312 187.031C48.9929 187.031 71.25 186.602 71.25 178.125C71.25 169.648 48.9929 169.219 44.5312 169.219ZM44.5312 181.094C34.0163 181.094 27.1184 179.401 24.5586 178.125C27.1192 176.849 34.0163 175.156 44.5312 175.156C55.0462 175.156 61.9441 176.849 64.5039 178.125C61.9441 179.401 55.0462 181.094 44.5312 181.094Z" fill="#F93264"/>
<path d="M181.094 20.7812H157.344V11.875C157.341 9.51373 156.402 7.24993 154.732 5.58026C153.063 3.91059 150.799 2.9714 148.438 2.96875H124.688C122.326 2.9714 120.062 3.91059 118.393 5.58026C116.723 7.24993 115.784 9.51373 115.781 11.875V20.7812H92.0312C91.2439 20.7812 90.4888 21.094 89.932 21.6508C89.3753 22.2075 89.0625 22.9626 89.0625 23.75V83.125C89.0625 83.9124 89.3753 84.6675 89.932 85.2242C90.4888 85.781 91.2439 86.0938 92.0312 86.0938H181.094C181.881 86.0938 182.636 85.781 183.193 85.2242C183.75 84.6675 184.062 83.9124 184.062 83.125V23.75C184.062 22.9626 183.75 22.2075 183.193 21.6508C182.636 21.094 181.881 20.7812 181.094 20.7812ZM121.719 11.875C121.72 11.0879 122.033 10.3333 122.589 9.77675C123.146 9.2202 123.9 8.90713 124.688 8.90625H148.438C149.225 8.90713 149.979 9.2202 150.536 9.77675C151.092 10.3333 151.405 11.0879 151.406 11.875V20.7812H121.719V11.875ZM95 26.7188H178.125V44.5312H163.281V38.5938C163.281 37.8064 162.968 37.0513 162.412 36.4945C161.855 35.9378 161.1 35.625 160.312 35.625H148.438C147.65 35.625 146.895 35.9378 146.338 36.4945C145.782 37.0513 145.469 37.8064 145.469 38.5938V44.5312H127.656V38.5938C127.656 37.8064 127.343 37.0513 126.787 36.4945C126.23 35.9378 125.475 35.625 124.688 35.625H112.812C112.025 35.625 111.27 35.9378 110.713 36.4945C110.157 37.0513 109.844 37.8064 109.844 38.5938V44.5312H95V26.7188ZM157.344 41.5625V53.4375H151.406V41.5625H157.344ZM121.719 41.5625V53.4375H115.781V41.5625H121.719ZM178.125 80.1562H95V50.4688H109.844V56.4062C109.844 57.1936 110.157 57.9487 110.713 58.5055C111.27 59.0622 112.025 59.375 112.812 59.375H124.688C125.475 59.375 126.23 59.0622 126.787 58.5055C127.343 57.9487 127.656 57.1936 127.656 56.4062V50.4688H145.469V56.4062C145.469 57.1936 145.782 57.9487 146.338 58.5055C146.895 59.0622 147.65 59.375 148.438 59.375H160.312C161.1 59.375 161.855 59.0622 162.412 58.5055C162.968 57.9487 163.281 57.1936 163.281 56.4062V50.4688H178.125V80.1562Z" fill="white"/>
<path d="M160.312 71.25H142.5C141.713 71.25 140.958 71.5628 140.401 72.1195C139.844 72.6763 139.531 73.4314 139.531 74.2188C139.531 75.0061 139.844 75.7612 140.401 76.318C140.958 76.8747 141.713 77.1875 142.5 77.1875H160.312C161.1 77.1875 161.855 76.8747 162.412 76.318C162.968 75.7612 163.281 75.0061 163.281 74.2188C163.281 73.4314 162.968 72.6763 162.412 72.1195C161.855 71.5628 161.1 71.25 160.312 71.25Z" fill="white"/>
<path d="M169.219 77.1875H172.188C172.975 77.1875 173.73 76.8747 174.287 76.318C174.843 75.7612 175.156 75.0061 175.156 74.2188C175.156 73.4314 174.843 72.6763 174.287 72.1195C173.73 71.5628 172.975 71.25 172.188 71.25H169.219C168.431 71.25 167.676 71.5628 167.12 72.1195C166.563 72.6763 166.25 73.4314 166.25 74.2188C166.25 75.0061 166.563 75.7612 167.12 76.318C167.676 76.8747 168.431 77.1875 169.219 77.1875Z" fill="white"/>
<path d="M172.188 157.344H118.75V145.469H157.344C158.131 145.469 158.886 145.156 159.443 144.599C160 144.042 160.312 143.287 160.312 142.5V124.688C160.312 123.9 160 123.145 159.443 122.588C158.886 122.032 158.131 121.719 157.344 121.719H139.531V92.0312C139.531 91.2439 139.218 90.4888 138.662 89.932C138.105 89.3753 137.35 89.0625 136.562 89.0625C135.775 89.0625 135.02 89.3753 134.463 89.932C133.907 90.4888 133.594 91.2439 133.594 92.0312V124.688C133.594 125.475 133.907 126.23 134.463 126.787C135.02 127.343 135.775 127.656 136.562 127.656H154.375V139.531H115.781C114.994 139.531 114.239 139.844 113.682 140.401C113.125 140.958 112.812 141.713 112.812 142.5V160.312C112.812 161.1 113.125 161.855 113.682 162.412C114.239 162.968 114.994 163.281 115.781 163.281H169.219V175.156H89.0625C88.2751 175.156 87.52 175.469 86.9633 176.026C86.4065 176.583 86.0938 177.338 86.0938 178.125C86.0938 178.912 86.4065 179.667 86.9633 180.224C87.52 180.781 88.2751 181.094 89.0625 181.094H172.188C172.975 181.094 173.73 180.781 174.287 180.224C174.843 179.667 175.156 178.912 175.156 178.125V160.312C175.156 159.525 174.843 158.77 174.287 158.213C173.73 157.657 172.975 157.344 172.188 157.344Z" fill="white"/>
<path d="M80.1562 175.156H77.1875C76.4001 175.156 75.645 175.469 75.0883 176.026C74.5315 176.583 74.2188 177.338 74.2188 178.125C74.2188 178.912 74.5315 179.667 75.0883 180.224C75.645 180.781 76.4001 181.094 77.1875 181.094H80.1562C80.9436 181.094 81.6987 180.781 82.2555 180.224C82.8122 179.667 83.125 178.912 83.125 178.125C83.125 177.338 82.8122 176.583 82.2555 176.026C81.6987 175.469 80.9436 175.156 80.1562 175.156Z" fill="white"/>
</svg>
