<svg width="190" height="190" viewBox="0 0 190 190" fill="none" xmlns="http://www.w3.org/2000/svg">
<g clip-path="url(#clip0_1_288)">
<path d="M182.829 150.373L172.293 139.836L168.353 143.776L178.89 154.311C182.222 157.644 184.057 162.074 184.057 166.787C184.057 171.499 182.223 175.929 178.89 179.262C175.558 182.593 171.128 184.428 166.415 184.428C161.703 184.428 157.273 182.594 153.94 179.262L128.032 153.353L152.982 128.403L164.413 139.836L168.353 135.896L152.982 120.524L149.042 124.464L136.022 111.444C142.8 100.335 146.708 87.2927 146.708 73.3535C146.708 46.4115 131.982 21.6874 108.275 8.83105L105.621 13.7278C127.527 25.6086 141.137 48.4569 141.137 73.355C141.137 110.73 110.729 141.138 73.3548 141.138C51.424 141.138 30.7428 130.445 18.0343 112.534L13.4913 115.758C27.2435 135.139 49.6222 146.708 73.3548 146.708C87.0997 146.708 99.9706 142.905 110.979 136.3L124.093 149.415L120.153 153.353L150 183.2C154.384 187.585 160.214 190 166.415 190C172.615 190 178.444 187.585 182.829 183.202C187.214 178.817 189.629 172.988 189.629 166.787C189.629 160.587 187.214 154.756 182.829 150.373ZM115.745 133.188C122.346 128.497 128.137 122.741 132.875 116.176L145.103 128.404L128.032 145.475L115.745 133.188Z" fill="white"/>
<path d="M5.57076 73.3548C5.57076 35.9787 35.9787 5.57076 73.3548 5.57076C82.9148 5.57076 92.1545 7.52045 100.82 11.3662L103.08 6.2738C93.6983 2.1106 83.6976 0 73.3548 0C32.907 0 0 32.907 0 73.3548C0 86.6069 3.57178 99.5937 10.3312 110.911L15.1148 108.055C8.87146 97.6006 5.57076 85.6009 5.57076 73.3548Z" fill="white"/>
<path d="M14.8568 73.3549C14.8568 105.61 41.0986 131.851 73.3548 131.851C105.61 131.851 131.851 105.61 131.851 73.3549C131.851 41.0988 105.61 14.8569 73.3548 14.8569C41.0986 14.8569 14.8568 41.0988 14.8568 73.3549ZM126.281 73.3549C126.281 102.538 102.538 126.281 73.3548 126.281C44.1703 126.281 20.4276 102.538 20.4276 73.3549C20.4276 44.1704 44.1703 20.4277 73.3548 20.4277C102.538 20.4277 126.281 44.1704 126.281 73.3549Z" fill="white"/>
<path d="M55.3408 43.641V49.0262H35.0988V71.4963C35.0988 74.9883 37.2514 77.9846 40.2985 79.2327V97.1249C40.2985 101.732 44.0471 105.482 48.6553 105.482H98.0528C102.661 105.482 106.41 101.732 106.41 97.1249V79.2327C109.457 77.9846 111.609 74.9883 111.609 71.4963V49.0262H91.3674V43.641C91.3674 39.0328 87.6187 35.2842 83.0105 35.2842H63.6977C59.0894 35.2842 55.3408 39.0328 55.3408 43.641ZM100.839 97.1249C100.839 98.66 99.5894 99.9096 98.0528 99.9096H48.6553C47.1188 99.9096 45.8692 98.66 45.8692 97.1249V79.8531H70.5687V85.982H76.1395V79.8531H100.839V97.1249ZM106.039 54.597V71.4963C106.039 73.0328 104.789 74.2824 103.253 74.2824H76.1395V68.1535H70.5687V74.2824H43.4557C41.9191 74.2824 40.6696 73.0328 40.6696 71.4963V54.597H106.039ZM85.7966 43.641V49.0262H60.9116V43.641C60.9116 42.1045 62.1611 40.8549 63.6977 40.8549H83.0105C84.5471 40.8549 85.7966 42.1045 85.7966 43.641Z" fill="#F93264"/>
<path d="M152.559 144.587L148.619 140.647L152.618 136.648L156.557 140.588L152.559 144.587Z" fill="white"/>
<path d="M148.62 148.524L140.217 156.928L136.277 152.989L144.682 144.584L148.62 148.524Z" fill="white"/>
<path d="M157.88 175.321C160.159 177.601 163.19 178.857 166.415 178.857C169.639 178.857 172.672 177.601 174.95 175.321C177.229 173.043 178.486 170.01 178.486 166.786H172.914C172.914 168.523 172.238 170.155 171.01 171.383C169.783 172.609 168.152 173.286 166.415 173.286C164.679 173.286 163.046 172.609 161.819 171.383L157.88 175.321Z" fill="white"/>
<path d="M82.0827 111.053H87.6535V116.623H82.0827V111.053Z" fill="#F93264"/>
<path d="M70.5687 111.053H76.1395V116.623H70.5687V111.053Z" fill="#F93264"/>
<path d="M59.0546 111.053H64.6254V116.623H59.0546V111.053Z" fill="#F93264"/>
</g>
<defs>
<clipPath id="clip0_1_288">
<rect width="190" height="190" fill="white"/>
</clipPath>
</defs>
</svg>
