<svg width="190" height="190" viewBox="0 0 190 190" fill="none" xmlns="http://www.w3.org/2000/svg">
<path d="M157.1 72.0387L138.829 91.1688C137.742 92.3072 137.742 94.1519 138.829 95.2898C139.917 96.4278 141.678 96.4274 142.765 95.2898L161.036 76.1598C162.123 75.0214 162.123 73.1767 161.036 72.0387C159.949 70.9011 158.188 70.9011 157.1 72.0387ZM116.007 146.104C114.47 146.104 113.224 147.409 113.224 149.018C113.224 150.628 114.47 151.932 116.007 151.932H143.773C145.31 151.932 146.556 150.628 146.556 149.018C146.556 147.409 145.31 146.104 143.773 146.104H116.007ZM186.438 51.8223L180.346 45.4443C175.607 40.4829 167.897 40.4829 163.158 45.4443L152.999 56.0805C150.262 52.6468 146.172 50.5608 141.793 50.5608H125.69C127.4 40.927 125.967 31.8942 121.475 24.2489C118.98 20.0027 115.644 16.3475 111.541 13.3551C111.982 10.5208 110.575 7.88546 108.31 6.67793C100.002 2.24683 89.8711 0 78.199 0C66.5264 0 56.3957 2.24683 48.0878 6.67793C45.812 7.89167 44.4141 10.5328 44.8575 13.3632C41.979 15.4628 39.463 17.8946 37.3671 20.6228C36.4034 21.8773 36.5934 23.7111 37.7913 24.7198C38.9884 25.7284 40.7414 25.5294 41.7044 24.2757C43.3134 22.1811 45.223 20.2848 47.4013 18.6133L52.5717 27.4281C45.6116 33.1464 43.9754 41.4787 46.4665 50.5608H36.3808C35.285 45.1949 35.3005 40.0839 36.4335 35.3396C36.806 33.7782 35.8998 32.1961 34.4084 31.8056C32.9163 31.4179 31.4064 32.3647 31.033 33.9258C29.7795 39.1763 29.6715 44.7574 30.7043 50.5604H14.6043C5.43211 50.5604 -1.45526 59.3041 0.264353 68.7172C4.94821 94.0221 4.67101 93.5967 5.53453 96.5898V134.045C5.53453 148.901 17.0783 160.988 31.2683 160.988H84.4681V177.376C84.4681 184.337 89.877 190 96.5254 190H149.695C163.819 190 175.311 177.968 175.311 163.18V150.243C175.311 148.634 174.066 147.329 172.528 147.329C170.991 147.329 169.745 148.634 169.745 150.243V152.795C169.745 156.711 166.702 159.898 162.961 159.898H160.986C153.031 159.898 146.56 166.673 146.56 175.001V177.069C146.56 180.986 143.517 184.172 139.776 184.172H96.5258C92.9467 184.172 90.0348 181.123 90.0348 177.375V88.2949C90.0348 84.5476 92.9467 81.4985 96.5258 81.4985H128.722L117.364 93.3896C111.857 99.1564 107.74 106.861 106.07 114.528C104.101 123.568 111.803 131.651 120.454 129.587C127.778 127.839 135.136 123.529 140.644 117.763L169.68 87.3613C169.806 88.3201 169.719 85.292 169.746 136.287C169.746 137.896 170.992 139.201 172.529 139.201C174.066 139.201 175.312 137.896 175.312 136.287V88.2953C175.312 86.3418 174.885 84.4664 174.081 82.7545L186.437 69.8175C191.187 64.8444 191.188 56.7962 186.438 51.8223ZM152.127 175.001C152.127 169.887 156.101 165.726 160.986 165.726C162.075 165.6 165.743 166.353 169.735 163.599C169.523 174.843 160.829 183.944 150.088 184.162C152.735 179.961 152.007 176.134 152.127 175.001ZM108.997 18.6122C118.243 25.7047 122.772 36.9831 120.01 50.5604H109.932C112.423 41.4783 110.786 33.1464 103.825 27.4274L108.997 18.6122ZM50.3544 12.1996C50.3815 12.0978 50.4491 11.9583 50.6138 11.8701C58.1317 7.86059 67.4126 5.82706 78.1982 5.82706C88.9839 5.82706 98.2647 7.8602 105.783 11.8701C106.047 12.0112 106.139 12.3476 105.989 12.6052L97.5541 26.9845C97.2821 27.448 96.7333 27.6267 96.2494 27.4103C91.4089 25.24 85.3357 24.1393 78.1986 24.1393C71.0615 24.1393 64.9879 25.24 60.1474 27.4103C59.6628 27.6271 59.1151 27.448 58.8427 26.9845C50.0579 11.8325 50.239 12.6282 50.3544 12.1996ZM55.9289 32.0803C57.7899 33.4576 60.1908 33.73 62.3387 32.7676C66.4244 30.9353 71.9087 29.9671 78.1982 29.9671C84.4878 29.9671 89.9724 30.9353 94.0581 32.7676C96.2019 33.7288 98.6232 33.3943 100.452 32.0652C106.084 36.7399 106.461 43.4248 104.09 50.5608H52.3063C49.9447 43.4528 50.3006 36.7581 55.9289 32.0803ZM84.4685 155.16H31.2683C20.1479 155.16 11.1008 145.688 11.1008 134.045V107.593C16.6883 114.819 25.1346 119.412 34.4519 119.653V123.948C34.4519 129.234 38.5594 133.535 43.6088 133.535H52.6971C57.7461 133.535 61.854 129.234 61.854 123.948V119.671H84.4681L84.4685 155.16ZM40.0182 123.948V109.566C40.0182 107.493 41.6291 105.807 43.6088 105.807H52.6971C54.6769 105.807 56.2877 107.493 56.2877 109.566V123.948C56.2877 126.021 54.6769 127.707 52.6971 127.707H43.6088C41.6291 127.707 40.0182 126.021 40.0182 123.948ZM96.5258 75.6706C89.8774 75.6706 84.4685 81.3337 84.4685 88.2949V113.843H61.8544V109.566C61.8544 104.279 57.7469 99.9789 52.6975 99.9789H43.6092C38.5602 99.9789 34.4522 104.279 34.4522 109.566V113.825C22.5864 113.451 12.4631 104.475 10.2206 92.198L5.73158 67.6228C4.66619 61.7868 8.94074 56.3886 14.6043 56.3886H141.793C144.674 56.3886 147.358 57.8467 149.046 60.2191L134.288 75.671L96.5258 75.6706ZM119.216 123.906C114.601 125.008 110.428 120.733 111.497 115.824C112.743 110.102 115.579 104.347 119.411 99.6553L134.659 115.619C130.179 119.631 124.682 122.601 119.216 123.906ZM138.675 111.582L123.268 95.4507L161.19 55.7472L176.597 71.8782L138.675 111.582ZM182.501 65.6965L180.533 67.7568L165.126 51.6257L167.094 49.5654C169.663 46.8764 173.841 46.8756 176.41 49.565L182.501 55.943C185.076 58.6382 185.076 63.0009 182.501 65.6965Z" fill="#F93264"/>
</svg>
